<mxfile host="app.diagrams.net" agent="Mozilla/5.0 (Windows NT 10.0; Win64; x64) AppleWebKit/537.36 (KHTML, like Gecko) Chrome/130.0.0.0 Safari/537.36" version="24.8.3">
  <diagram name="Страница — 1" id="IpnGylTlZ7x4tJlNyktd">
    <mxGraphModel dx="-853" dy="197" grid="0" gridSize="10" guides="1" tooltips="1" connect="1" arrows="1" fold="1" page="0" pageScale="1" pageWidth="827" pageHeight="1169" math="0" shadow="0">
      <root>
        <mxCell id="0" />
        <mxCell id="1" parent="0" />
        <mxCell id="mgK9JKxpu6oQ2iOlPExS-1" value="" style="shape=cube;whiteSpace=wrap;html=1;boundedLbl=1;backgroundOutline=1;darkOpacity=0.05;darkOpacity2=0.1;flipH=1;" vertex="1" parent="1">
          <mxGeometry x="2265.857142857143" y="953.2857142857147" width="330" height="190" as="geometry" />
        </mxCell>
        <mxCell id="mgK9JKxpu6oQ2iOlPExS-2" value="&amp;lt;&amp;lt;устройство&amp;gt;&amp;gt;&lt;br&gt;&lt;b&gt;ПК/ ноутбук&lt;/b&gt;" style="text;html=1;align=center;verticalAlign=middle;resizable=0;points=[];autosize=1;strokeColor=none;fillColor=none;" vertex="1" parent="1">
          <mxGeometry x="2265.857142857143" y="973.2857142857147" width="110" height="40" as="geometry" />
        </mxCell>
        <mxCell id="mgK9JKxpu6oQ2iOlPExS-3" value="" style="shape=cube;whiteSpace=wrap;html=1;boundedLbl=1;backgroundOutline=1;darkOpacity=0.05;darkOpacity2=0.1;flipH=1;" vertex="1" parent="1">
          <mxGeometry x="2325.857142857143" y="1033.2857142857147" width="212" height="110" as="geometry" />
        </mxCell>
        <mxCell id="mgK9JKxpu6oQ2iOlPExS-4" value="&amp;lt;&amp;lt;среда выполнения&amp;gt;&amp;gt;&lt;br&gt;&lt;b&gt;ОС Windows&lt;/b&gt;" style="text;html=1;align=center;verticalAlign=middle;resizable=0;points=[];autosize=1;strokeColor=none;fillColor=none;" vertex="1" parent="1">
          <mxGeometry x="2322.857142857143" y="1054.7857142857147" width="150" height="41" as="geometry" />
        </mxCell>
        <mxCell id="mgK9JKxpu6oQ2iOlPExS-5" value="" style="shape=cube;whiteSpace=wrap;html=1;boundedLbl=1;backgroundOutline=1;darkOpacity=0.05;darkOpacity2=0.1;flipH=1;" vertex="1" parent="1">
          <mxGeometry x="2995.857142857143" y="923.2857142857147" width="510" height="520" as="geometry" />
        </mxCell>
        <mxCell id="mgK9JKxpu6oQ2iOlPExS-6" value="&amp;lt;&amp;lt;устройство&amp;gt;&amp;gt;&lt;br&gt;&lt;b&gt;Сервер приложения на WebSocket&lt;/b&gt;" style="text;html=1;align=center;verticalAlign=middle;resizable=0;points=[];autosize=1;strokeColor=none;fillColor=none;" vertex="1" parent="1">
          <mxGeometry x="3008.857142857143" y="943.2857142857147" width="224" height="41" as="geometry" />
        </mxCell>
        <mxCell id="mgK9JKxpu6oQ2iOlPExS-7" value="" style="shape=cube;whiteSpace=wrap;html=1;boundedLbl=1;backgroundOutline=1;darkOpacity=0.05;darkOpacity2=0.1;flipH=1;" vertex="1" parent="1">
          <mxGeometry x="3108.107142857143" y="983.2857142857147" width="323.5" height="250" as="geometry" />
        </mxCell>
        <mxCell id="mgK9JKxpu6oQ2iOlPExS-8" value="&amp;lt;&amp;lt;среда выполнения&amp;gt;&amp;gt;&lt;br&gt;&lt;b&gt;WPF&lt;/b&gt;" style="text;html=1;align=center;verticalAlign=middle;resizable=0;points=[];autosize=1;strokeColor=none;fillColor=none;" vertex="1" parent="1">
          <mxGeometry x="3160.857142857143" y="1058.7857142857147" width="150" height="41" as="geometry" />
        </mxCell>
        <mxCell id="mgK9JKxpu6oQ2iOlPExS-9" value="&amp;lt;&amp;lt;Приложение&amp;gt;&amp;gt;&amp;nbsp; &amp;nbsp; &amp;nbsp;&lt;br style=&quot;border-color: var(--border-color);&quot;&gt;&lt;b&gt;System.exe&amp;nbsp; &amp;nbsp;&amp;nbsp;&lt;/b&gt;" style="html=1;dropTarget=0;whiteSpace=wrap;" vertex="1" parent="1">
          <mxGeometry x="3195.857142857143" y="1098.7857142857147" width="148" height="70" as="geometry" />
        </mxCell>
        <mxCell id="mgK9JKxpu6oQ2iOlPExS-10" value="" style="shape=module;jettyWidth=8;jettyHeight=4;" vertex="1" parent="mgK9JKxpu6oQ2iOlPExS-9">
          <mxGeometry x="1" width="20" height="20" relative="1" as="geometry">
            <mxPoint x="-27" y="7" as="offset" />
          </mxGeometry>
        </mxCell>
        <mxCell id="mgK9JKxpu6oQ2iOlPExS-11" value="" style="shape=cube;whiteSpace=wrap;html=1;boundedLbl=1;backgroundOutline=1;darkOpacity=0.05;darkOpacity2=0.1;flipH=1;" vertex="1" parent="1">
          <mxGeometry x="3149.857142857143" y="1303.2857142857147" width="230" height="121" as="geometry" />
        </mxCell>
        <mxCell id="mgK9JKxpu6oQ2iOlPExS-12" value="&amp;lt;&amp;lt;Cреда выполнения&amp;gt;&amp;gt;&lt;br&gt;&lt;b&gt;ORACLE Database&lt;/b&gt;" style="text;html=1;align=center;verticalAlign=middle;resizable=0;points=[];autosize=1;strokeColor=none;fillColor=none;" vertex="1" parent="1">
          <mxGeometry x="3153.857142857143" y="1326.7857142857147" width="153" height="41" as="geometry" />
        </mxCell>
        <mxCell id="mgK9JKxpu6oQ2iOlPExS-13" style="edgeStyle=orthogonalEdgeStyle;rounded=0;orthogonalLoop=1;jettySize=auto;html=1;endArrow=diamondThin;endFill=1;strokeWidth=1;endSize=16;" edge="1" parent="1" source="mgK9JKxpu6oQ2iOlPExS-14" target="mgK9JKxpu6oQ2iOlPExS-1">
          <mxGeometry relative="1" as="geometry">
            <Array as="points">
              <mxPoint x="2655.857142857143" y="1058.2857142857147" />
              <mxPoint x="2655.857142857143" y="1058.2857142857147" />
            </Array>
          </mxGeometry>
        </mxCell>
        <mxCell id="mgK9JKxpu6oQ2iOlPExS-14" value="" style="shape=cube;whiteSpace=wrap;html=1;boundedLbl=1;backgroundOutline=1;darkOpacity=0.05;darkOpacity2=0.1;flipH=1;" vertex="1" parent="1">
          <mxGeometry x="2675.857142857143" y="1013.2857142857147" width="200" height="95" as="geometry" />
        </mxCell>
        <mxCell id="mgK9JKxpu6oQ2iOlPExS-15" value="&amp;lt;&amp;lt;Desktop-приложение&amp;gt;&amp;gt;" style="text;html=1;align=center;verticalAlign=middle;resizable=0;points=[];autosize=1;strokeColor=none;fillColor=none;" vertex="1" parent="1">
          <mxGeometry x="2675.857142857143" y="1033.2857142857147" width="162" height="26" as="geometry" />
        </mxCell>
        <mxCell id="mgK9JKxpu6oQ2iOlPExS-16" value="&amp;lt;&amp;lt;protocol&amp;gt;&amp;gt;&lt;br&gt;HTTPS&amp;nbsp;" style="text;html=1;strokeColor=none;fillColor=none;align=center;verticalAlign=middle;whiteSpace=wrap;rounded=0;" vertex="1" parent="1">
          <mxGeometry x="2915.857142857143" y="1033.2857142857147" width="60" height="30" as="geometry" />
        </mxCell>
        <mxCell id="mgK9JKxpu6oQ2iOlPExS-17" value="" style="rounded=0;whiteSpace=wrap;html=1;fillColor=none;" vertex="1" parent="1">
          <mxGeometry x="3125.997142857143" y="1033.2857142857147" width="266" height="174.25" as="geometry" />
        </mxCell>
        <mxCell id="mgK9JKxpu6oQ2iOlPExS-18" value="&amp;lt;&amp;lt;Интерфейс&amp;gt;&amp;gt;&lt;br&gt;&lt;b&gt;Видеокотроль за объектом&lt;/b&gt;" style="text;html=1;align=center;verticalAlign=middle;resizable=0;points=[];autosize=1;strokeColor=none;fillColor=none;" vertex="1" parent="1">
          <mxGeometry x="3113.997142857143" y="996.9957142857147" width="181" height="41" as="geometry" />
        </mxCell>
        <mxCell id="mgK9JKxpu6oQ2iOlPExS-19" style="edgeStyle=orthogonalEdgeStyle;rounded=0;orthogonalLoop=1;jettySize=auto;html=1;exitX=1;exitY=0.361;exitDx=0;exitDy=0;exitPerimeter=0;endArrow=none;endFill=0;" edge="1" parent="1" source="mgK9JKxpu6oQ2iOlPExS-7">
          <mxGeometry relative="1" as="geometry">
            <mxPoint x="2875.857142857143" y="1063.2857142857147" as="targetPoint" />
            <Array as="points">
              <mxPoint x="2875.857142857143" y="1072.2857142857147" />
            </Array>
          </mxGeometry>
        </mxCell>
        <mxCell id="mgK9JKxpu6oQ2iOlPExS-25" style="edgeStyle=orthogonalEdgeStyle;rounded=0;orthogonalLoop=1;jettySize=auto;html=1;entryX=0;entryY=0;entryDx=167.5;entryDy=239.5;entryPerimeter=0;endArrow=none;endFill=0;" edge="1" parent="1" source="mgK9JKxpu6oQ2iOlPExS-11" target="mgK9JKxpu6oQ2iOlPExS-7">
          <mxGeometry relative="1" as="geometry" />
        </mxCell>
        <mxCell id="mgK9JKxpu6oQ2iOlPExS-26" value="&lt;div&gt;&amp;lt;&amp;lt;protocol&amp;gt;&amp;gt;&lt;/div&gt;ODBC" style="text;html=1;strokeColor=none;fillColor=none;align=center;verticalAlign=middle;whiteSpace=wrap;rounded=0;" vertex="1" parent="1">
          <mxGeometry x="3193.997142857143" y="1248.2857142857147" width="60" height="30" as="geometry" />
        </mxCell>
        <mxCell id="mgK9JKxpu6oQ2iOlPExS-27" value="&lt;div&gt;&amp;lt;&amp;lt;protocol&amp;gt;&amp;gt;&lt;/div&gt;TCP/IP" style="text;html=1;strokeColor=none;fillColor=none;align=center;verticalAlign=middle;whiteSpace=wrap;rounded=0;" vertex="1" parent="1">
          <mxGeometry x="3275.857142857143" y="1248.2857142857147" width="60" height="30" as="geometry" />
        </mxCell>
        <mxCell id="mgK9JKxpu6oQ2iOlPExS-28" value="&lt;span style=&quot;border-color: var(--border-color);&quot;&gt;&amp;lt;&amp;lt;набор правил&amp;gt;&amp;gt;&lt;br&gt;&lt;b&gt;REST API&lt;/b&gt;&lt;/span&gt;" style="text;html=1;align=center;verticalAlign=middle;resizable=0;points=[];autosize=1;strokeColor=none;fillColor=none;" vertex="1" parent="1">
          <mxGeometry x="3120.857142857143" y="1028.2857142857147" width="130" height="40" as="geometry" />
        </mxCell>
        <mxCell id="mgK9JKxpu6oQ2iOlPExS-29" value="" style="rounded=0;whiteSpace=wrap;html=1;fillColor=none;" vertex="1" parent="1">
          <mxGeometry x="3159.857142857143" y="1063.2857142857147" width="220" height="120" as="geometry" />
        </mxCell>
        <mxCell id="mgK9JKxpu6oQ2iOlPExS-30" value="&quot;Интерфейс&quot; системы видеоконтроля за обьектом" style="shape=umlFrame;whiteSpace=wrap;html=1;pointerEvents=0;width=530;height=44;" vertex="1" parent="1">
          <mxGeometry x="2079" y="749" width="1682" height="842" as="geometry" />
        </mxCell>
      </root>
    </mxGraphModel>
  </diagram>
</mxfile>
